solid Botsy
facet normal 0.43021951346700804 0.902724304664614 0.0
  outer loop
    vertex 243.460170494567 333.0193032037162 65.03829261099797
    vertex 276.1840454658903 312.6886083716802 -5.639932965095795e-15
    vertex 243.460170494567 333.0193032037162 -5.639932965095795e-15
  endloop
endfacet
facet normal 0.6187133568740241 0.7856168162823889 0.0
  outer loop
    vertex 276.1840454658903 312.6886083716802 -5.639932965095795e-15
    vertex 243.460170494567 333.0193032037162 65.03829261099797
    vertex 276.1840454658903 312.6886083716802 65.03829261099797
  endloop
endfacet
facet normal 0.896515269343322 0.44301283484146436 4.3263029362103005e-18
  outer loop
    vertex 324.41243789571666 253.2101148001863 -5.639932965095795e-15
    vertex 337.54199192000016 216.99128052000006 44.957372104558
    vertex 337.54199192000016 216.99128052000006 2.007962773831195e-15
  endloop
endfacet
facet normal 0.9401341806298926 0.34080452228713215 8.599179714672101e-18
  outer loop
    vertex 337.54199192000016 216.99128052000006 44.957372104558
    vertex 324.41243789571666 253.2101148001863 -5.639932965095795e-15
    vertex 337.54199192000016 216.99128052000006 65.03829261099797
  endloop
endfacet
facet normal 0.9401341806298926 0.34080452228713215 8.599179714672101e-18
  outer loop
    vertex 337.54199192000016 216.99128052000006 65.03829261099797
    vertex 324.41243789571666 253.2101148001863 -5.639932965095795e-15
    vertex 324.41243789571666 253.2101148001863 65.03829261099797
  endloop
endfacet
facet normal 1.0 0.0 0.0
  outer loop
    vertex 337.54199192000016 216.99128052000006 44.957372104558
    vertex 337.54199192000016 0.0 65.03829261099797
    vertex 337.54199192000016 0.0 44.957372104558
  endloop
endfacet
facet normal 1.0 0.0 0.0
  outer loop
    vertex 337.54199192000016 0.0 65.03829261099797
    vertex 337.54199192000016 216.99128052000006 44.957372104558
    vertex 337.54199192000016 216.99128052000006 65.03829261099797
  endloop
endfacet
facet normal 3.667715953242802e-32 1.1566426722031734e-33 1.0
  outer loop
    vertex 82.52451003669081 44.15813866901027 65.03829261099797
    vertex 82.73736275076152 50.44792152277523 65.03829261099797
    vertex 80.856900007814 47.42347063749587 65.03829261099797
  endloop
endfacet
facet normal 3.667715953242802e-32 1.1566426722031734e-33 1.0
  outer loop
    vertex 82.73736275076152 50.44792152277523 65.03829261099797
    vertex 82.52451003669081 44.15813866901027 65.03829261099797
    vertex 84.57455559675574 41.1182983320053 65.03829261099797
  endloop
endfacet
facet normal 3.667715953242802e-32 1.1566426722031734e-33 1.0
  outer loop
    vertex 82.73736275076152 50.44792152277523 65.03829261099797
    vertex 84.57455559675574 41.1182983320053 65.03829261099797
    vertex 84.94732176808816 53.24068438897378 65.03829261099797
  endloop
endfacet
facet normal 3.667715953242802e-32 1.1566426722031734e-33 1.0
  outer loop
    vertex 84.94732176808816 53.24068438897378 65.03829261099797
    vertex 84.57455559675574 41.1182983320053 65.03829261099797
    vertex 86.97697929954973 38.3485192027103 65.03829261099797
  endloop
endfacet
facet normal 3.667715953242802e-32 1.1566426722031734e-33 1.0
  outer loop
    vertex 84.94732176808816 53.24068438897378 65.03829261099797
    vertex 86.97697929954973 38.3485192027103 65.03829261099797
    vertex 87.45850717230489 55.76603409757448 65.03829261099797
  endloop
endfacet
facet normal 3.667715953242802e-32 1.1566426722031734e-33 1.0
  outer loop
    vertex 87.45850717230489 55.76603409757448 65.03829261099797
    vertex 86.97697929954973 38.3485192027103 65.03829261099797
    vertex 89.69655725352374 35.88941126992592 65.03829261099797
  endloop
endfacet
facet normal 3.667715953242802e-32 1.1566426722031734e-33 1.0
  outer loop
    vertex 87.45850717230489 55.76603409757448 65.03829261099797
    vertex 89.69655725352374 35.88941126992592 65.03829261099797
    vertex 90.23879577547717 57.99166627027312 65.03829261099797
  endloop
endfacet
facet normal 3.667715953242802e-32 1.1566426722031734e-33 1.0
  outer loop
    vertex 90.23879577547717 57.99166627027312 65.03829261099797
    vertex 89.69655725352374 35.88941126992592 65.03829261099797
    vertex 92.6934155102155 33.77702951888687 65.03829261099797
  endloop
endfacet
facet normal 3.667715953242802e-32 1.1566426722031734e-33 1.0
  outer loop
    vertex 90.23879577547717 57.99166627027312 65.03829261099797
    vertex 92.6934155102155 33.77702951888687 65.03829261099797
    vertex 93.2526220103784 59.88911052792653 65.03829261099797
  endloop
endfacet
facet normal 3.667715953242802e-32 1.1566426722031734e-33 1.0
  outer loop
    vertex 93.2526220103784 59.88911052792653 65.03829261099797
    vertex 92.6934155102155 33.77702951888687 65.03829261099797
    vertex 95.92361468869957 32.04234529974344 65.03829261099797
  endloop
endfacet
facet normal 3.667715953242802e-32 1.1566426722031734e-33 1.0
  outer loop
    vertex 93.2526220103784 59.88911052792653 65.03829261099797
    vertex 95.92361468869957 32.04234529974344 65.03829261099797
    vertex 96.46143288670241 61.43409468482448 65.03829261099797
  endloop
endfacet
facet normal 3.667715953242802e-32 1.1566426722031734e-33 1.0
  outer loop
    vertex 96.46143288670241 61.43409468482448 65.03829261099797
    vertex 95.92361468869957 32.04234529974344 65.03829261099797
    vertex 99.3397942066556 30.710792231359687 65.03829261099797
  endloop
endfacet
facet normal 3.667715953242802e-32 1.1566426722031734e-33 1.0
  outer loop
    vertex 96.46143288670241 61.43409468482448 65.03829261099797
    vertex 99.3397942066556 30.710792231359687 65.03829261099797
    vertex 99.82418116251571 62.60685523949684 65.03829261099797
  endloop
endfacet
facet normal 3.667715953242802e-32 1.1566426722031734e-33 1.0
  outer loop
    vertex 99.82418116251571 62.60685523949684 65.03829261099797
    vertex 99.3397942066556 30.710792231359687 65.03829261099797
    vertex 102.89186667245804 29.801893298302375 65.03829261099797
  endloop
endfacet
facet normal 3.667715953242802e-32 1.1566426722031734e-33 1.0
  outer loop
    vertex 99.82418116251571 62.60685523949684 65.03829261099797
    vertex 102.89186667245804 29.801893298302375 65.03829261099797
    vertex 103.2978504222804 63.39239019024488 65.03829261099797
  endloop
endfacet
facet normal 3.667715953242802e-32 1.1566426722031734e-33 1.0
  outer loop
    vertex 103.2978504222804 63.39239019024488 65.03829261099797
    vertex 102.89186667245804 29.801893298302375 65.03829261099797
    vertex 106.527752257239 29.328974608455713 65.03829261099797
  endloop
endfacet
facet normal 3.667715953242802e-32 1.1566426722031734e-33 1.0
  outer loop
    vertex 103.2978504222804 63.39239019024488 65.03829261099797
    vertex 106.527752257239 29.328974608455713 65.03829261099797
    vertex 106.83800534462729 63.780650941369636 65.03829261099797
  endloop
endfacet
facet normal 3.667715953242802e-32 1.1566426722031734e-33 1.0
  outer loop
    vertex 106.83800534462729 63.780650941369636 65.03829261099797
    vertex 106.527752257239 29.328974608455713 65.03829261099797
    vertex 110.1941422796973 29.298970008094727 65.03829261099797
  endloop
endfacet
facet normal 3.667715953242802e-32 1.1566426722031734e-33 1.0
  outer loop
    vertex 106.83800534462729 63.780650941369636 65.03829261099797
    vertex 110.1941422796973 29.298970008094727 65.03829261099797
    vertex 110.3993601208315 63.76667084522533 65.03829261099797
  endloop
endfacet
facet normal 3.667715953242802e-32 1.1566426722031734e-33 1.0
  outer loop
    vertex 110.3993601208315 63.76667084522533 65.03829261099797
    vertex 110.1941422796973 29.298970008094727 65.03829261099797
    vertex 113.83728080811395 29.7123194191149 65.03829261099797
  endloop
endfacet
facet normal 3.667715953242802e-32 1.1566426722031734e-33 1.0
  outer loop
    vertex 110.3993601208315 63.76667084522533 65.03829261099797
    vertex 113.83728080811395 29.7123194191149 65.03829261099797
    vertex 113.93635775275762 63.35062873578215 65.03829261099797
  endloop
endfacet
facet normal 3.667715953242802e-32 1.1566426722031734e-33 1.0
  outer loop
    vertex 113.93635775275762 63.35062873578215 65.03829261099797
    vertex 113.83728080811395 29.7123194191149 65.03829261099797
    vertex 117.40375281987087 30.562962388978786 65.03829261099797
  endloop
endfacet
facet normal 3.667715953242802e-32 1.1566426722031734e-33 1.0
  outer loop
    vertex 113.93635775275762 63.35062873578215 65.03829261099797
    vertex 117.40375281987087 30.562962388978786 65.03829261099797
    vertex 117.40375281987087 62.53784664097479 65.03829261099797
  endloop
endfacet
facet normal 3.667715953242802e-32 1.1566426722031734e-33 1.0
  outer loop
    vertex 1.606370219064956e-14 0.0 65.03829261099797
    vertex 17.213474049534014 47.42347063749587 65.03829261099797
    vertex 1.606370219064956e-14 92.74183786107987 65.03829261099797
  endloop
endfacet
facet normal 3.667715953242802e-32 1.1566426722031734e-33 1.0
  outer loop
    vertex 17.213474049534014 47.42347063749587 65.03829261099797
    vertex 1.606370219064956e-14 0.0 65.03829261099797
    vertex 102.89186667245804 29.801893298302375 65.03829261099797
  endloop
endfacet
facet normal 3.667715953242802e-32 1.1566426722031734e-33 1.0
  outer loop
    vertex 102.89186667245804 29.801893298302375 65.03829261099797
    vertex 1.606370219064956e-14 0.0 65.03829261099797
    vertex 106.527752257239 29.328974608455713 65.03829261099797
  endloop
endfacet
facet normal 3.667715953242802e-32 1.1566426722031734e-33 1.0
  outer loop
    vertex 106.527752257239 29.328974608455713 65.03829261099797
    vertex 1.606370219064956e-14 0.0 65.03829261099797
    vertex 337.54199192000016 0.0 65.03829261099797
  endloop
endfacet
facet normal 3.667715953242802e-32 1.1566426722031734e-33 1.0
  outer loop
    vertex 1.606370219064956e-14 92.74183786107987 65.03829261099797
    vertex 17.213474049534014 47.42347063749587 65.03829261099797
    vertex 1.606370219064956e-14 216.99128052000006 65.03829261099797
  endloop
endfacet
facet normal 3.667715953242802e-32 1.1566426722031734e-33 1.0
  outer loop
    vertex 1.606370219064956e-14 216.99128052000006 65.03829261099797
    vertex 17.213474049534014 47.42347063749587 65.03829261099797
    vertex 13.129554024283504 253.21011480018623 65.03829261099797
  endloop
endfacet
facet normal 3.667715953242802e-32 1.1566426722031734e-33 1.0
  outer loop
    vertex 17.213474049534014 47.42347063749587 65.03829261099797
    vertex 102.89186667245804 29.801893298302375 65.03829261099797
    vertex 99.3397942066556 30.710792231359687 65.03829261099797
  endloop
endfacet
facet normal 3.667715953242802e-32 1.1566426722031734e-33 1.0
  outer loop
    vertex 17.213474049534014 47.42347063749587 65.03829261099797
    vertex 99.3397942066556 30.710792231359687 65.03829261099797
    vertex 95.92361468869957 32.04234529974344 65.03829261099797
  endloop
endfacet
facet normal 3.667715953242802e-32 1.1566426722031734e-33 1.0
  outer loop
    vertex 17.213474049534014 47.42347063749587 65.03829261099797
    vertex 95.92361468869957 32.04234529974344 65.03829261099797
    vertex 92.6934155102155 33.77702951888687 65.03829261099797
  endloop
endfacet
facet normal 3.667715953242802e-32 1.1566426722031734e-33 1.0
  outer loop
    vertex 17.213474049534014 47.42347063749587 65.03829261099797
    vertex 92.6934155102155 33.77702951888687 65.03829261099797
    vertex 89.69655725352374 35.88941126992592 65.03829261099797
  endloop
endfacet
facet normal 3.667715953242802e-32 1.1566426722031734e-33 1.0
  outer loop
    vertex 17.213474049534014 47.42347063749587 65.03829261099797
    vertex 89.69655725352374 35.88941126992592 65.03829261099797
    vertex 86.97697929954973 38.3485192027103 65.03829261099797
  endloop
endfacet
facet normal 3.667715953242802e-32 1.1566426722031734e-33 1.0
  outer loop
    vertex 17.213474049534014 47.42347063749587 65.03829261099797
    vertex 86.97697929954973 38.3485192027103 65.03829261099797
    vertex 84.57455559675574 41.1182983320053 65.03829261099797
  endloop
endfacet
facet normal 3.667715953242802e-32 1.1566426722031734e-33 1.0
  outer loop
    vertex 17.213474049534014 47.42347063749587 65.03829261099797
    vertex 84.57455559675574 41.1182983320053 65.03829261099797
    vertex 82.52451003669081 44.15813866901027 65.03829261099797
  endloop
endfacet
facet normal 3.667715953242802e-32 1.1566426722031734e-33 1.0
  outer loop
    vertex 17.213474049534014 47.42347063749587 65.03829261099797
    vertex 82.52451003669081 44.15813866901027 65.03829261099797
    vertex 80.856900007814 47.42347063749587 65.03829261099797
  endloop
endfacet
facet normal 3.667715953242802e-32 1.1566426722031734e-33 1.0
  outer loop
    vertex 106.527752257239 29.328974608455713 65.03829261099797
    vertex 337.54199192000016 0.0 65.03829261099797
    vertex 110.1941422796973 29.298970008094727 65.03829261099797
  endloop
endfacet
facet normal 3.667715953242802e-32 1.1566426722031734e-33 1.0
  outer loop
    vertex 110.1941422796973 29.298970008094727 65.03829261099797
    vertex 337.54199192000016 0.0 65.03829261099797
    vertex 113.83728080811395 29.7123194191149 65.03829261099797
  endloop
endfacet
facet normal 3.667715953242802e-32 1.1566426722031734e-33 1.0
  outer loop
    vertex 113.83728080811395 29.7123194191149 65.03829261099797
    vertex 337.54199192000016 0.0 65.03829261099797
    vertex 117.40375281987087 30.562962388978786 65.03829261099797
  endloop
endfacet
facet normal 3.667715953242802e-32 1.1566426722031734e-33 1.0
  outer loop
    vertex 117.40375281987087 30.562962388978786 65.03829261099797
    vertex 337.54199192000016 0.0 65.03829261099797
    vertex 224.82142970335286 30.562962388978786 65.03829261099797
  endloop
endfacet
facet normal 3.667715953242802e-32 1.1566426722031734e-33 1.0
  outer loop
    vertex 224.82142970335286 30.562962388978786 65.03829261099797
    vertex 337.54199192000016 0.0 65.03829261099797
    vertex 224.82142970335286 62.53784664097479 65.03829261099797
  endloop
endfacet
facet normal 3.667715953242802e-32 1.1566426722031734e-33 1.0
  outer loop
    vertex 224.82142970335286 62.53784664097479 65.03829261099797
    vertex 337.54199192000016 0.0 65.03829261099797
    vertex 228.45365742140086 63.374753362747754 65.03829261099797
  endloop
endfacet
facet normal 3.667715953242802e-32 1.1566426722031734e-33 1.0
  outer loop
    vertex 228.45365742140086 63.374753362747754 65.03829261099797
    vertex 337.54199192000016 0.0 65.03829261099797
    vertex 232.15524238576435 63.81265724295799 65.03829261099797
  endloop
endfacet
facet normal 3.667715953242802e-32 1.1566426722031734e-33 1.0
  outer loop
    vertex 232.15524238576435 63.81265724295799 65.03829261099797
    vertex 337.54199192000016 0.0 65.03829261099797
    vertex 235.88248711064998 63.846388793732416 65.03829261099797
  endloop
endfacet
facet normal 3.667715953242802e-32 1.1566426722031734e-33 1.0
  outer loop
    vertex 235.88248711064998 63.846388793732416 65.03829261099797
    vertex 337.54199192000016 0.0 65.03829261099797
    vertex 263.6266093465762 47.42347063749587 65.03829261099797
  endloop
endfacet
facet normal 3.667715953242802e-32 1.1566426722031734e-33 1.0
  outer loop
    vertex 235.88248711064998 63.846388793732416 65.03829261099797
    vertex 263.6266093465762 47.42347063749587 65.03829261099797
    vertex 239.59139119488296 63.47554981160551 65.03829261099797
  endloop
endfacet
facet normal 3.667715953242802e-32 1.1566426722031734e-33 1.0
  outer loop
    vertex 239.59139119488296 63.47554981160551 65.03829261099797
    vertex 263.6266093465762 47.42347063749587 65.03829261099797
    vertex 243.2381707499156 62.704518078340826 65.03829261099797
  endloop
endfacet
facet normal 3.667715953242802e-32 1.1566426722031734e-33 1.0
  outer loop
    vertex 243.2381707499156 62.704518078340826 65.03829261099797
    vertex 263.6266093465762 47.42347063749587 65.03829261099797
    vertex 246.77977527188753 61.54239568089159 65.03829261099797
  endloop
endfacet
facet normal 3.667715953242802e-32 1.1566426722031734e-33 1.0
  outer loop
    vertex 246.77977527188753 61.54239568089159 65.03829261099797
    vertex 263.6266093465762 47.42347063749587 65.03829261099797
    vertex 250.17439585602563 60.00290156058749 65.03829261099797
  endloop
endfacet
facet normal 3.667715953242802e-32 1.1566426722031734e-33 1.0
  outer loop
    vertex 250.17439585602563 60.00290156058749 65.03829261099797
    vertex 263.6266093465762 47.42347063749587 65.03829261099797
    vertex 253.38195875387422 58.10420956001174 65.03829261099797
  endloop
endfacet
facet normal 3.667715953242802e-32 1.1566426722031734e-33 1.0
  outer loop
    vertex 253.38195875387422 58.10420956001174 65.03829261099797
    vertex 263.6266093465762 47.42347063749587 65.03829261099797
    vertex 256.36459844687585 55.868733879438054 65.03829261099797
  endloop
endfacet
facet normal 3.667715953242802e-32 1.1566426722031734e-33 1.0
  outer loop
    vertex 256.36459844687585 55.868733879438054 65.03829261099797
    vertex 263.6266093465762 47.42347063749587 65.03829261099797
    vertex 259.0871046516339 53.32286447552922 65.03829261099797
  endloop
endfacet
facet normal 3.667715953242802e-32 1.1566426722031734e-33 1.0
  outer loop
    vertex 259.0871046516339 53.32286447552922 65.03829261099797
    vertex 263.6266093465762 47.42347063749587 65.03829261099797
    vertex 261.5173379799268 50.49665552593623 65.03829261099797
  endloop
endfacet
facet normal 3.667715953242802e-32 1.1566426722031734e-33 1.0
  outer loop
    vertex 263.6266093465762 47.42347063749587 65.03829261099797
    vertex 337.54199192000016 0.0 65.03829261099797
    vertex 321.2630123401581 47.42347063749587 65.03829261099797
  endloop
endfacet
facet normal 3.667715953242802e-32 1.1566426722031734e-33 1.0
  outer loop
    vertex 321.2630123401581 47.42347063749587 65.03829261099797
    vertex 337.54199192000016 0.0 65.03829261099797
    vertex 321.2630123401581 216.99128052000006 65.03829261099797
  endloop
endfacet
facet normal 3.667715953242802e-32 1.1566426722031734e-33 1.0
  outer loop
    vertex 321.2630123401581 216.99128052000006 65.03829261099797
    vertex 337.54199192000016 0.0 65.03829261099797
    vertex 324.41243789571666 253.2101148001863 65.03829261099797
  endloop
endfacet
facet normal 3.667715953242802e-32 1.1566426722031734e-33 1.0
  outer loop
    vertex 324.41243789571666 253.2101148001863 65.03829261099797
    vertex 337.54199192000016 0.0 65.03829261099797
    vertex 337.54199192000016 216.99128052000006 65.03829261099797
  endloop
endfacet
facet normal 3.667715953242802e-32 1.1566426722031734e-33 1.0
  outer loop
    vertex 13.129554024283504 253.21011480018623 65.03829261099797
    vertex 17.213474049534017 216.99128052000006 65.03829261099797
    vertex 33.92352966461821 285.6415767247023 65.03829261099797
  endloop
endfacet
facet normal 3.667715953242802e-32 1.1566426722031734e-33 1.0
  outer loop
    vertex 17.213474049534017 216.99128052000006 65.03829261099797
    vertex 13.129554024283504 253.21011480018623 65.03829261099797
    vertex 17.213474049534014 47.42347063749587 65.03829261099797
  endloop
endfacet
facet normal 3.667715953242802e-32 1.1566426722031734e-33 1.0
  outer loop
    vertex 33.92352966461821 285.6415767247023 65.03829261099797
    vertex 17.213474049534017 216.99128052000006 65.03829261099797
    vertex 153.8739838355511 230.2604476760486 65.03829261099797
  endloop
endfacet
facet normal 3.667715953242802e-32 1.1566426722031734e-33 1.0
  outer loop
    vertex 153.8739838355511 230.2604476760486 65.03829261099797
    vertex 17.213474049534017 216.99128052000006 65.03829261099797
    vertex 165.21129716250857 225.5643787351496 65.03829261099797
  endloop
endfacet
facet normal 3.667715953242802e-32 1.1566426722031734e-33 1.0
  outer loop
    vertex 165.21129716250857 225.5643787351496 65.03829261099797
    vertex 17.213474049534017 216.99128052000006 65.03829261099797
    vertex 177.37773298476708 223.96263707241255 65.03829261099797
  endloop
endfacet
facet normal 3.667715953242802e-32 1.1566426722031734e-33 1.0
  outer loop
    vertex 177.37773298476708 223.96263707241255 65.03829261099797
    vertex 17.213474049534017 216.99128052000006 65.03829261099797
    vertex 321.2630123401581 216.99128052000006 65.03829261099797
  endloop
endfacet
facet normal 3.667715953242802e-32 1.1566426722031734e-33 1.0
  outer loop
    vertex 33.92352966461821 285.6415767247023 65.03829261099797
    vertex 153.8739838355511 230.2604476760486 65.03829261099797
    vertex 144.13841217133074 237.73081455740814 65.03829261099797
  endloop
endfacet
facet normal 3.667715953242802e-32 1.1566426722031734e-33 1.0
  outer loop
    vertex 33.92352966461821 285.6415767247023 65.03829261099797
    vertex 144.13841217133074 237.73081455740814 65.03829261099797
    vertex 61.357946454109936 312.6886083716802 65.03829261099797
  endloop
endfacet
facet normal 3.667715953242802e-32 1.1566426722031734e-33 1.0
  outer loop
    vertex 61.357946454109936 312.6886083716802 65.03829261099797
    vertex 144.13841217133074 237.73081455740814 65.03829261099797
    vertex 136.66804528997122 247.4663862216285 65.03829261099797
  endloop
endfacet
facet normal 3.667715953242802e-32 1.1566426722031734e-33 1.0
  outer loop
    vertex 61.357946454109936 312.6886083716802 65.03829261099797
    vertex 136.66804528997122 247.4663862216285 65.03829261099797
    vertex 94.08182142543313 333.0193032037162 65.03829261099797
  endloop
endfacet
facet normal 3.667715953242802e-32 1.1566426722031734e-33 1.0
  outer loop
    vertex 94.08182142543313 333.0193032037162 65.03829261099797
    vertex 136.66804528997122 247.4663862216285 65.03829261099797
    vertex 131.97197634907218 258.803699548586 65.03829261099797
  endloop
endfacet
facet normal 3.667715953242802e-32 1.1566426722031734e-33 1.0
  outer loop
    vertex 94.08182142543313 333.0193032037162 65.03829261099797
    vertex 131.97197634907218 258.803699548586 65.03829261099797
    vertex 130.3702346863351 270.9701353708445 65.03829261099797
  endloop
endfacet
facet normal 3.667715953242802e-32 1.1566426722031734e-33 1.0
  outer loop
    vertex 177.37773298476708 223.96263707241255 65.03829261099797
    vertex 321.2630123401581 216.99128052000006 65.03829261099797
    vertex 189.54416880702567 225.5643787351496 65.03829261099797
  endloop
endfacet
facet normal 3.667715953242802e-32 1.1566426722031734e-33 1.0
  outer loop
    vertex 189.54416880702567 225.5643787351496 65.03829261099797
    vertex 321.2630123401581 216.99128052000006 65.03829261099797
    vertex 200.8814821339831 230.26044767604864 65.03829261099797
  endloop
endfacet
facet normal 3.667715953242802e-32 1.1566426722031734e-33 1.0
  outer loop
    vertex 200.8814821339831 230.26044767604864 65.03829261099797
    vertex 321.2630123401581 216.99128052000006 65.03829261099797
    vertex 210.61705379820344 237.73081455740814 65.03829261099797
  endloop
endfacet
facet normal 3.667715953242802e-32 1.1566426722031734e-33 1.0
  outer loop
    vertex 210.61705379820344 237.73081455740814 65.03829261099797
    vertex 321.2630123401581 216.99128052000006 65.03829261099797
    vertex 241.7834889708351 238.6693528582845 65.03829261099793
  endloop
endfacet
facet normal 3.667715953242802e-32 1.1566426722031734e-33 1.0
  outer loop
    vertex 210.61705379820344 237.73081455740814 65.03829261099797
    vertex 241.7834889708351 238.6693528582845 65.03829261099793
    vertex 218.08742067956297 247.46638622162857 65.03829261099797
  endloop
endfacet
facet normal 3.667715953242802e-32 1.1566426722031734e-33 1.0
  outer loop
    vertex 218.08742067956297 247.46638622162857 65.03829261099797
    vertex 241.7834889708351 238.6693528582845 65.03829261099793
    vertex 222.78348962046198 258.803699548586 65.03829261099797
  endloop
endfacet
facet normal 3.667715953242802e-32 1.1566426722031734e-33 1.0
  outer loop
    vertex 222.78348962046198 258.803699548586 65.03829261099797
    vertex 241.7834889708351 238.6693528582845 65.03829261099793
    vertex 224.3852312831991 270.9701353708445 65.03829261099797
  endloop
endfacet
facet normal 3.667715953242802e-32 1.1566426722031734e-33 1.0
  outer loop
    vertex 241.7834889708351 238.6693528582845 65.03829261099793
    vertex 321.2630123401581 216.99128052000006 65.03829261099797
    vertex 278.83990030637307 238.6693528582845 65.03829261099793
  endloop
endfacet
facet normal 3.667715953242802e-32 1.1566426722031734e-33 1.0
  outer loop
    vertex 278.83990030637307 238.6693528582845 65.03829261099793
    vertex 321.2630123401581 216.99128052000006 65.03829261099797
    vertex 278.83990030637307 268.5900801085445 65.03829261099793
  endloop
endfacet
facet normal 3.667715953242802e-32 1.1566426722031734e-33 1.0
  outer loop
    vertex 278.83990030637307 268.5900801085445 65.03829261099793
    vertex 321.2630123401581 216.99128052000006 65.03829261099797
    vertex 303.6184622553819 285.6415767247023 65.03829261099797
  endloop
endfacet
facet normal 3.667715953242802e-32 1.1566426722031734e-33 1.0
  outer loop
    vertex 303.6184622553819 285.6415767247023 65.03829261099797
    vertex 321.2630123401581 216.99128052000006 65.03829261099797
    vertex 324.41243789571666 253.2101148001863 65.03829261099797
  endloop
endfacet
facet normal 3.667715953242802e-32 1.1566426722031734e-33 1.0
  outer loop
    vertex 130.3702346863351 270.9701353708445 65.03829261099797
    vertex 130.48369704149584 345.6324945970498 65.03829261099797
    vertex 94.08182142543313 333.0193032037162 65.03829261099797
  endloop
endfacet
facet normal 3.667715953242802e-32 1.1566426722031734e-33 1.0
  outer loop
    vertex 130.48369704149584 345.6324945970498 65.03829261099797
    vertex 130.3702346863351 270.9701353708445 65.03829261099797
    vertex 131.97197634907218 283.13657119310307 65.03829261099797
  endloop
endfacet
facet normal 3.667715953242802e-32 1.1566426722031734e-33 1.0
  outer loop
    vertex 130.48369704149584 345.6324945970498 65.03829261099797
    vertex 131.97197634907218 283.13657119310307 65.03829261099797
    vertex 136.6680452899712 294.4738845200605 65.03829261099797
  endloop
endfacet
facet normal 3.667715953242802e-32 1.1566426722031734e-33 1.0
  outer loop
    vertex 130.48369704149584 345.6324945970498 65.03829261099797
    vertex 136.6680452899712 294.4738845200605 65.03829261099797
    vertex 168.77099596000008 349.9070573837301 65.03829261099797
  endloop
endfacet
facet normal 3.667715953242802e-32 1.1566426722031734e-33 1.0
  outer loop
    vertex 168.77099596000008 349.9070573837301 65.03829261099797
    vertex 136.6680452899712 294.4738845200605 65.03829261099797
    vertex 144.13841217133074 304.20945618428084 65.03829261099797
  endloop
endfacet
facet normal 3.667715953242802e-32 1.1566426722031734e-33 1.0
  outer loop
    vertex 168.77099596000008 349.9070573837301 65.03829261099797
    vertex 144.13841217133074 304.20945618428084 65.03829261099797
    vertex 153.87398383555106 311.67982306564045 65.03829261099797
  endloop
endfacet
facet normal 3.667715953242802e-32 1.1566426722031734e-33 1.0
  outer loop
    vertex 168.77099596000008 349.9070573837301 65.03829261099797
    vertex 153.87398383555106 311.67982306564045 65.03829261099797
    vertex 165.21129716250852 316.3758920065394 65.03829261099797
  endloop
endfacet
facet normal 3.667715953242802e-32 1.1566426722031734e-33 1.0
  outer loop
    vertex 168.77099596000008 349.9070573837301 65.03829261099797
    vertex 165.21129716250852 316.3758920065394 65.03829261099797
    vertex 177.37773298476708 317.9776336692765 65.03829261099797
  endloop
endfacet
facet normal 3.667715953242802e-32 1.1566426722031734e-33 1.0
  outer loop
    vertex 168.77099596000008 349.9070573837301 65.03829261099797
    vertex 177.37773298476708 317.9776336692765 65.03829261099797
    vertex 177.37773298476708 348.94616333165493 65.03829261099797
  endloop
endfacet
facet normal 3.667715953242802e-32 1.1566426722031734e-33 1.0
  outer loop
    vertex 177.37773298476708 348.94616333165493 65.03829261099797
    vertex 177.37773298476708 317.9776336692765 65.03829261099797
    vertex 189.5441688070256 316.3758920065394 65.03829261099797
  endloop
endfacet
facet normal 3.667715953242802e-32 1.1566426722031734e-33 1.0
  outer loop
    vertex 177.37773298476708 348.94616333165493 65.03829261099797
    vertex 189.5441688070256 316.3758920065394 65.03829261099797
    vertex 207.05829487850428 345.6324945970498 65.03829261099797
  endloop
endfacet
facet normal 3.667715953242802e-32 1.1566426722031734e-33 1.0
  outer loop
    vertex 207.05829487850428 345.6324945970498 65.03829261099797
    vertex 189.5441688070256 316.3758920065394 65.03829261099797
    vertex 200.88148213398307 311.67982306564045 65.03829261099797
  endloop
endfacet
facet normal 3.667715953242802e-32 1.1566426722031734e-33 1.0
  outer loop
    vertex 207.05829487850428 345.6324945970498 65.03829261099797
    vertex 200.88148213398307 311.67982306564045 65.03829261099797
    vertex 210.61705379820344 304.2094561842809 65.03829261099797
  endloop
endfacet
facet normal 3.667715953242802e-32 1.1566426722031734e-33 1.0
  outer loop
    vertex 207.05829487850428 345.6324945970498 65.03829261099797
    vertex 210.61705379820344 304.2094561842809 65.03829261099797
    vertex 243.460170494567 333.0193032037162 65.03829261099797
  endloop
endfacet
facet normal 3.667715953242802e-32 1.1566426722031734e-33 1.0
  outer loop
    vertex 243.460170494567 333.0193032037162 65.03829261099797
    vertex 210.61705379820344 304.2094561842809 65.03829261099797
    vertex 218.08742067956294 294.4738845200605 65.03829261099797
  endloop
endfacet
facet normal 3.667715953242802e-32 1.1566426722031734e-33 1.0
  outer loop
    vertex 243.460170494567 333.0193032037162 65.03829261099797
    vertex 218.08742067956294 294.4738845200605 65.03829261099797
    vertex 222.78348962046198 283.13657119310307 65.03829261099797
  endloop
endfacet
facet normal 3.667715953242802e-32 1.1566426722031734e-33 1.0
  outer loop
    vertex 243.460170494567 333.0193032037162 65.03829261099797
    vertex 222.78348962046198 283.13657119310307 65.03829261099797
    vertex 224.3852312831991 270.9701353708445 65.03829261099797
  endloop
endfacet
facet normal 3.667715953242802e-32 1.1566426722031734e-33 1.0
  outer loop
    vertex 243.460170494567 333.0193032037162 65.03829261099797
    vertex 224.3852312831991 270.9701353708445 65.03829261099797
    vertex 241.7834889708351 268.5900801085445 65.03829261099793
  endloop
endfacet
facet normal 3.667715953242802e-32 1.1566426722031734e-33 1.0
  outer loop
    vertex 241.7834889708351 268.5900801085445 65.03829261099793
    vertex 224.3852312831991 270.9701353708445 65.03829261099797
    vertex 241.7834889708351 238.6693528582845 65.03829261099793
  endloop
endfacet
facet normal 3.667715953242802e-32 1.1566426722031734e-33 1.0
  outer loop
    vertex 243.460170494567 333.0193032037162 65.03829261099797
    vertex 241.7834889708351 268.5900801085445 65.03829261099793
    vertex 278.83990030637307 268.5900801085445 65.03829261099793
  endloop
endfacet
facet normal 3.667715953242802e-32 1.1566426722031734e-33 1.0
  outer loop
    vertex 243.460170494567 333.0193032037162 65.03829261099797
    vertex 278.83990030637307 268.5900801085445 65.03829261099793
    vertex 276.1840454658903 312.6886083716802 65.03829261099797
  endloop
endfacet
facet normal 3.667715953242802e-32 1.1566426722031734e-33 1.0
  outer loop
    vertex 276.1840454658903 312.6886083716802 65.03829261099797
    vertex 278.83990030637307 268.5900801085445 65.03829261099793
    vertex 303.6184622553819 285.6415767247023 65.03829261099797
  endloop
endfacet
facet normal 0.6187133568740241 0.7856168162823889 0.0
  outer loop
    vertex 276.1840454658903 312.6886083716802 65.03829261099797
    vertex 303.6184622553819 285.6415767247023 -5.639932965095795e-15
    vertex 276.1840454658903 312.6886083716802 -5.639932965095795e-15
  endloop
endfacet
facet normal 0.7767392222953079 0.6298223404644204 0.0
  outer loop
    vertex 303.6184622553819 285.6415767247023 -5.639932965095795e-15
    vertex 276.1840454658903 312.6886083716802 65.03829261099797
    vertex 303.6184622553819 285.6415767247023 65.03829261099797
  endloop
endfacet
facet normal 0.0 0.0 -1.0
  outer loop
    vertex 1.606370219064956e-14 216.99128052000006 2.007962773831195e-15
    vertex 7.763867197855985 135.03995949898083 1.3125776236507823e-14
    vertex -1.0113244420354996e-14 135.03995949898083 2.007962773831195e-15
  endloop
endfacet
facet normal 0.0 0.0 -1.0
  outer loop
    vertex 7.763867197855985 135.03995949898083 1.3125776236507823e-14
    vertex 1.606370219064956e-14 216.99128052000006 2.007962773831195e-15
    vertex 337.54199192000016 216.99128052000006 2.007962773831195e-15
  endloop
endfacet
facet normal 0.0 0.0 -1.0
  outer loop
    vertex 7.763867197855985 135.03995949898083 1.3125776236507823e-14
    vertex 337.54199192000016 216.99128052000006 2.007962773831195e-15
    vertex 7.763867197855985 121.21920012425085 1.3125776236507823e-14
  endloop
endfacet
facet normal 0.0 0.0 -1.0
  outer loop
    vertex 7.763867197855985 121.21920012425085 1.3125776236507823e-14
    vertex 1.606370219064956e-14 92.74183786107987 2.007962773831195e-15
    vertex -1.45278807650584e-14 121.21920012425085 2.007962773831195e-15
  endloop
endfacet
facet normal 0.0 0.0 -1.0
  outer loop
    vertex 1.606370219064956e-14 92.74183786107987 2.007962773831195e-15
    vertex 7.763867197855985 121.21920012425085 1.3125776236507823e-14
    vertex 1.606370219064956e-14 0.0 2.007962773831195e-15
  endloop
endfacet
facet normal 0.0 0.0 -1.0
  outer loop
    vertex 1.606370219064956e-14 0.0 2.007962773831195e-15
    vertex 7.763867197855985 121.21920012425085 1.3125776236507823e-14
    vertex 337.54199192000016 0.0 2.007962773831195e-15
  endloop
endfacet
facet normal 0.0 0.0 -1.0
  outer loop
    vertex 337.54199192000016 0.0 2.007962773831195e-15
    vertex 7.763867197855985 121.21920012425085 1.3125776236507823e-14
    vertex 337.54199192000016 216.99128052000006 2.007962773831195e-15
  endloop
endfacet
facet normal 0.0 -1.0 0.0
  outer loop
    vertex 337.54199192000016 0.0 65.03829261099797
    vertex 1.606370219064956e-14 0.0 44.957372104558
    vertex 337.54199192000016 0.0 44.957372104558
  endloop
endfacet
facet normal 0.0 -1.0 0.0
  outer loop
    vertex 1.606370219064956e-14 0.0 44.957372104558
    vertex 337.54199192000016 0.0 65.03829261099797
    vertex 1.606370219064956e-14 0.0 65.03829261099797
  endloop
endfacet
facet normal 1.0616171020990331e-33 -4.380063967473669e-17 -1.0
  outer loop
    vertex 13.129554024283504 253.21011480018623 -5.639932965095795e-15
    vertex 337.54199192000016 216.99128052000006 2.007962773831195e-15
    vertex 1.606370219064956e-14 216.99128052000006 2.007962773831195e-15
  endloop
endfacet
facet normal 1.0616171020990331e-33 -4.380063967473669e-17 -1.0
  outer loop
    vertex 337.54199192000016 216.99128052000006 2.007962773831195e-15
    vertex 13.129554024283504 253.21011480018623 -5.639932965095795e-15
    vertex 33.92352966461821 285.6415767247023 -5.639932965095795e-15
  endloop
endfacet
facet normal 1.0616171020990331e-33 -4.380063967473669e-17 -1.0
  outer loop
    vertex 337.54199192000016 216.99128052000006 2.007962773831195e-15
    vertex 33.92352966461821 285.6415767247023 -5.639932965095795e-15
    vertex 61.357946454109936 312.6886083716802 -5.639932965095795e-15
  endloop
endfacet
facet normal 1.0616171020990331e-33 -4.380063967473669e-17 -1.0
  outer loop
    vertex 337.54199192000016 216.99128052000006 2.007962773831195e-15
    vertex 61.357946454109936 312.6886083716802 -5.639932965095795e-15
    vertex 94.08182142543313 333.0193032037162 -5.639932965095795e-15
  endloop
endfacet
facet normal 1.0616171020990331e-33 -4.380063967473669e-17 -1.0
  outer loop
    vertex 337.54199192000016 216.99128052000006 2.007962773831195e-15
    vertex 94.08182142543313 333.0193032037162 -5.639932965095795e-15
    vertex 130.48369704149584 345.6324945970498 -5.639932965095795e-15
  endloop
endfacet
facet normal 1.0616171020990331e-33 -4.380063967473669e-17 -1.0
  outer loop
    vertex 337.54199192000016 216.99128052000006 2.007962773831195e-15
    vertex 130.48369704149584 345.6324945970498 -5.639932965095795e-15
    vertex 168.77099596000008 349.9070573837301 -5.639932965095795e-15
  endloop
endfacet
facet normal 1.0616171020990331e-33 -4.380063967473669e-17 -1.0
  outer loop
    vertex 337.54199192000016 216.99128052000006 2.007962773831195e-15
    vertex 168.77099596000008 349.9070573837301 -5.639932965095795e-15
    vertex 207.05829487850428 345.6324945970498 -5.639932965095795e-15
  endloop
endfacet
facet normal 1.0616171020990331e-33 -4.380063967473669e-17 -1.0
  outer loop
    vertex 337.54199192000016 216.99128052000006 2.007962773831195e-15
    vertex 207.05829487850428 345.6324945970498 -5.639932965095795e-15
    vertex 243.460170494567 333.0193032037162 -5.639932965095795e-15
  endloop
endfacet
facet normal 1.0616171020990331e-33 -4.380063967473669e-17 -1.0
  outer loop
    vertex 337.54199192000016 216.99128052000006 2.007962773831195e-15
    vertex 243.460170494567 333.0193032037162 -5.639932965095795e-15
    vertex 276.1840454658903 312.6886083716802 -5.639932965095795e-15
  endloop
endfacet
facet normal 1.0616171020990331e-33 -4.380063967473669e-17 -1.0
  outer loop
    vertex 337.54199192000016 216.99128052000006 2.007962773831195e-15
    vertex 276.1840454658903 312.6886083716802 -5.639932965095795e-15
    vertex 303.6184622553819 285.6415767247023 -5.639932965095795e-15
  endloop
endfacet
facet normal 1.0616171020990331e-33 -4.380063967473669e-17 -1.0
  outer loop
    vertex 337.54199192000016 216.99128052000006 2.007962773831195e-15
    vertex 303.6184622553819 285.6415767247023 -5.639932965095795e-15
    vertex 324.41243789571666 253.2101148001863 -5.639932965095795e-15
  endloop
endfacet
facet normal 0.7767392222953079 0.6298223404644204 0.0
  outer loop
    vertex 303.6184622553819 285.6415767247023 -5.639932965095795e-15
    vertex 324.41243789571666 253.2101148001863 65.03829261099797
    vertex 324.41243789571666 253.2101148001863 -5.639932965095795e-15
  endloop
endfacet
facet normal 0.8965152693433222 0.44301283484146436 4.326302936210301e-18
  outer loop
    vertex 324.41243789571666 253.2101148001863 65.03829261099797
    vertex 303.6184622553819 285.6415767247023 -5.639932965095795e-15
    vertex 303.6184622553819 285.6415767247023 65.03829261099797
  endloop
endfacet
facet normal -0.5000000000000017 0.8660254037844377 -2.2058114838487553e-32
  outer loop
    vertex 153.87398383555106 311.67982306564045 71.49973209253004
    vertex 165.21129716250852 316.3758920065394 65.03829261099797
    vertex 153.87398383555106 311.67982306564045 65.03829261099797
  endloop
endfacet
facet normal -0.25881904510252 0.9659258262890686 -8.514114527961667e-33
  outer loop
    vertex 165.21129716250852 316.3758920065394 65.03829261099797
    vertex 153.87398383555106 311.67982306564045 71.49973209253004
    vertex 165.21129716250852 316.3758920065394 71.49973209253004
  endloop
endfacet
facet normal 0.4999999999999993 0.866025403784439 2.205811483848745e-32
  outer loop
    vertex 200.88148213398307 311.67982306564045 71.49973209253004
    vertex 210.61705379820344 304.2094561842809 65.03829261099797
    vertex 200.88148213398307 311.67982306564045 65.03829261099797
  endloop
endfacet
facet normal 0.7071067811865476 0.7071067811865476 3.11948851649722e-32
  outer loop
    vertex 210.61705379820344 304.2094561842809 65.03829261099797
    vertex 200.88148213398307 311.67982306564045 71.49973209253004
    vertex 210.61705379820344 304.2094561842809 71.49973209253004
  endloop
endfacet
facet normal 1.0 1.0693331874776285e-15 4.411622967697495e-32
  outer loop
    vertex 224.3852312831991 270.9701353708445 65.03829261099797
    vertex 222.78348962046198 258.803699548586 71.49973209253004
    vertex 222.78348962046198 258.803699548586 65.03829261099797
  endloop
endfacet
facet normal 0.9659258262890683 -0.25881904510252063 4.261300560349035e-32
  outer loop
    vertex 222.78348962046198 258.803699548586 71.49973209253004
    vertex 224.3852312831991 270.9701353708445 65.03829261099797
    vertex 224.3852312831991 270.9701353708445 71.49973209253004
  endloop
endfacet
facet normal -0.2588190451025202 -0.9659258262890684 -1.1418120438518122e-32
  outer loop
    vertex 165.21129716250857 225.5643787351496 71.49973209253004
    vertex 153.8739838355511 230.2604476760486 65.03829261099797
    vertex 165.21129716250857 225.5643787351496 65.03829261099797
  endloop
endfacet
facet normal -0.5000000000000003 -0.8660254037844386 -2.2058114838487496e-32
  outer loop
    vertex 153.8739838355511 230.2604476760486 65.03829261099797
    vertex 165.21129716250857 225.5643787351496 71.49973209253004
    vertex 153.8739838355511 230.2604476760486 71.49973209253004
  endloop
endfacet
facet normal -0.866025403784438 0.5000000000000011 -3.820577561944924e-32
  outer loop
    vertex 136.6680452899712 294.4738845200605 71.49973209253004
    vertex 131.97197634907218 283.13657119310307 65.03829261099797
    vertex 131.97197634907218 283.13657119310307 71.49973209253004
  endloop
endfacet
facet normal -0.9659258262890686 0.25881904510252013 -4.261300560349036e-32
  outer loop
    vertex 131.97197634907218 283.13657119310307 65.03829261099797
    vertex 136.6680452899712 294.4738845200605 71.49973209253004
    vertex 136.6680452899712 294.4738845200605 65.03829261099797
  endloop
endfacet
facet normal -0.8660254037844385 -0.5000000000000006 -3.820577561944925e-32
  outer loop
    vertex 136.66804528997122 247.4663862216285 71.49973209253004
    vertex 144.13841217133074 237.73081455740814 65.03829261099797
    vertex 144.13841217133074 237.73081455740814 71.49973209253004
  endloop
endfacet
facet normal -0.7071067811865478 -0.7071067811865474 -3.1194885164972203e-32
  outer loop
    vertex 144.13841217133074 237.73081455740814 65.03829261099797
    vertex 136.66804528997122 247.4663862216285 71.49973209253004
    vertex 136.66804528997122 247.4663862216285 65.03829261099797
  endloop
endfacet
facet normal -1.0 0.0 -4.4116229676974964e-32
  outer loop
    vertex 130.3702346863351 270.9701353708445 71.49973209253004
    vertex 131.97197634907218 258.803699548586 65.03829261099797
    vertex 131.97197634907218 258.803699548586 71.49973209253004
  endloop
endfacet
facet normal -0.9659258262890681 -0.25881904510252113 -4.2613005603490334e-32
  outer loop
    vertex 131.97197634907218 258.803699548586 65.03829261099797
    vertex 130.3702346863351 270.9701353708445 71.49973209253004
    vertex 130.3702346863351 270.9701353708445 65.03829261099797
  endloop
endfacet
facet normal -1.0 0.0 0.0
  outer loop
    vertex 1.606370219064956e-14 92.74183786107987 65.03829261099797
    vertex 1.606370219064956e-14 0.0 44.957372104558
    vertex 1.606370219064956e-14 0.0 65.03829261099797
  endloop
endfacet
facet normal -1.0 0.0 0.0
  outer loop
    vertex 1.606370219064956e-14 0.0 44.957372104558
    vertex 1.606370219064956e-14 92.74183786107987 65.03829261099797
    vertex 1.606370219064956e-14 92.74183786107987 44.957372104558
  endloop
endfacet
facet normal 0.0 -1.0 0.0
  outer loop
    vertex 224.82142970335286 62.53784664097479 65.03829261099797
    vertex 117.40375281987087 62.53784664097479 44.560927712685974
    vertex 224.82142970335286 62.53784664097479 44.560927712685974
  endloop
endfacet
facet normal 0.0 -1.0 0.0
  outer loop
    vertex 117.40375281987087 62.53784664097479 44.560927712685974
    vertex 224.82142970335286 62.53784664097479 65.03829261099797
    vertex 117.40375281987087 62.53784664097479 65.03829261099797
  endloop
endfacet
facet normal -1.0 0.0 0.0
  outer loop
    vertex 224.82142970335286 62.53784664097479 65.03829261099797
    vertex 224.82142970335286 30.562962388978786 44.560927712685974
    vertex 224.82142970335286 30.562962388978786 65.03829261099797
  endloop
endfacet
facet normal -1.0 0.0 0.0
  outer loop
    vertex 224.82142970335286 30.562962388978786 44.560927712685974
    vertex 224.82142970335286 62.53784664097479 65.03829261099797
    vertex 224.82142970335286 62.53784664097479 44.560927712685974
  endloop
endfacet
facet normal -1.5971033953370055e-16 -1.0 -2.4409575872762175e-31
  outer loop
    vertex 7.763867197855985 135.03995949898083 1.3125776236507823e-14
    vertex -4.511946372076636e-14 135.03995949898083 22.90435196171732
    vertex -1.0113244420354996e-14 135.03995949898083 2.007962773831195e-15
  endloop
endfacet
facet normal -1.5971033953370055e-16 -1.0 -2.4409575872762175e-31
  outer loop
    vertex -4.511946372076636e-14 135.03995949898083 22.90435196171732
    vertex 7.763867197855985 135.03995949898083 1.3125776236507823e-14
    vertex 7.763867197855954 135.03995949898083 22.90435196171732
  endloop
endfacet
facet normal 3.804895251003631e-32 -3.3113950753314104e-31 1.0
  outer loop
    vertex 82.52451003669081 44.15813866901027 65.03829261099797
    vertex 82.73736275076152 50.44792152277523 65.03829261099797
    vertex 80.856900007814 47.42347063749587 65.03829261099797
  endloop
endfacet
facet normal 3.804895251003631e-32 -3.3113950753314104e-31 1.0
  outer loop
    vertex 82.73736275076152 50.44792152277523 65.03829261099797
    vertex 82.52451003669081 44.15813866901027 65.03829261099797
    vertex 84.57455559675574 41.1182983320053 65.03829261099797
  endloop
endfacet
facet normal 3.804895251003631e-32 -3.3113950753314104e-31 1.0
  outer loop
    vertex 82.73736275076152 50.44792152277523 65.03829261099797
    vertex 84.57455559675574 41.1182983320053 65.03829261099797
    vertex 84.94732176808816 53.24068438897378 65.03829261099797
  endloop
endfacet
facet normal 3.804895251003631e-32 -3.3113950753314104e-31 1.0
  outer loop
    vertex 84.94732176808816 53.24068438897378 65.03829261099797
    vertex 84.57455559675574 41.1182983320053 65.03829261099797
    vertex 86.97697929954973 38.3485192027103 65.03829261099797
  endloop
endfacet
facet normal 3.804895251003631e-32 -3.3113950753314104e-31 1.0
  outer loop
    vertex 84.94732176808816 53.24068438897378 65.03829261099797
    vertex 86.97697929954973 38.3485192027103 65.03829261099797
    vertex 87.45850717230489 55.76603409757448 65.03829261099797
  endloop
endfacet
facet normal 3.804895251003631e-32 -3.3113950753314104e-31 1.0
  outer loop
    vertex 87.45850717230489 55.76603409757448 65.03829261099797
    vertex 86.97697929954973 38.3485192027103 65.03829261099797
    vertex 89.69655725352374 35.88941126992592 65.03829261099797
  endloop
endfacet
facet normal 3.804895251003631e-32 -3.3113950753314104e-31 1.0
  outer loop
    vertex 87.45850717230489 55.76603409757448 65.03829261099797
    vertex 89.69655725352374 35.88941126992592 65.03829261099797
    vertex 90.23879577547717 57.99166627027312 65.03829261099797
  endloop
endfacet
facet normal 3.804895251003631e-32 -3.3113950753314104e-31 1.0
  outer loop
    vertex 90.23879577547717 57.99166627027312 65.03829261099797
    vertex 89.69655725352374 35.88941126992592 65.03829261099797
    vertex 92.6934155102155 33.77702951888687 65.03829261099797
  endloop
endfacet
facet normal 3.804895251003631e-32 -3.3113950753314104e-31 1.0
  outer loop
    vertex 90.23879577547717 57.99166627027312 65.03829261099797
    vertex 92.6934155102155 33.77702951888687 65.03829261099797
    vertex 93.2526220103784 59.88911052792653 65.03829261099797
  endloop
endfacet
facet normal 3.804895251003631e-32 -3.3113950753314104e-31 1.0
  outer loop
    vertex 93.2526220103784 59.88911052792653 65.03829261099797
    vertex 92.6934155102155 33.77702951888687 65.03829261099797
    vertex 95.92361468869957 32.04234529974344 65.03829261099797
  endloop
endfacet
facet normal 3.804895251003631e-32 -3.3113950753314104e-31 1.0
  outer loop
    vertex 93.2526220103784 59.88911052792653 65.03829261099797
    vertex 95.92361468869957 32.04234529974344 65.03829261099797
    vertex 96.46143288670241 61.43409468482448 65.03829261099797
  endloop
endfacet
facet normal 3.804895251003631e-32 -3.3113950753314104e-31 1.0
  outer loop
    vertex 96.46143288670241 61.43409468482448 65.03829261099797
    vertex 95.92361468869957 32.04234529974344 65.03829261099797
    vertex 99.3397942066556 30.710792231359687 65.03829261099797
  endloop
endfacet
facet normal 3.804895251003631e-32 -3.3113950753314104e-31 1.0
  outer loop
    vertex 96.46143288670241 61.43409468482448 65.03829261099797
    vertex 99.3397942066556 30.710792231359687 65.03829261099797
    vertex 99.82418116251571 62.60685523949684 65.03829261099797
  endloop
endfacet
facet normal 3.804895251003631e-32 -3.3113950753314104e-31 1.0
  outer loop
    vertex 99.82418116251571 62.60685523949684 65.03829261099797
    vertex 99.3397942066556 30.710792231359687 65.03829261099797
    vertex 102.89186667245804 29.801893298302375 65.03829261099797
  endloop
endfacet
facet normal 3.804895251003631e-32 -3.3113950753314104e-31 1.0
  outer loop
    vertex 99.82418116251571 62.60685523949684 65.03829261099797
    vertex 102.89186667245804 29.801893298302375 65.03829261099797
    vertex 103.2978504222804 63.39239019024488 65.03829261099797
  endloop
endfacet
facet normal 3.804895251003631e-32 -3.3113950753314104e-31 1.0
  outer loop
    vertex 103.2978504222804 63.39239019024488 65.03829261099797
    vertex 102.89186667245804 29.801893298302375 65.03829261099797
    vertex 106.527752257239 29.328974608455713 65.03829261099797
  endloop
endfacet
facet normal 3.804895251003631e-32 -3.3113950753314104e-31 1.0
  outer loop
    vertex 103.2978504222804 63.39239019024488 65.03829261099797
    vertex 106.527752257239 29.328974608455713 65.03829261099797
    vertex 106.83800534462729 63.780650941369636 65.03829261099797
  endloop
endfacet
facet normal 3.804895251003631e-32 -3.3113950753314104e-31 1.0
  outer loop
    vertex 106.83800534462729 63.780650941369636 65.03829261099797
    vertex 106.527752257239 29.328974608455713 65.03829261099797
    vertex 110.1941422796973 29.298970008094727 65.03829261099797
  endloop
endfacet
facet normal 3.804895251003631e-32 -3.3113950753314104e-31 1.0
  outer loop
    vertex 106.83800534462729 63.780650941369636 65.03829261099797
    vertex 110.1941422796973 29.298970008094727 65.03829261099797
    vertex 110.3993601208315 63.76667084522533 65.03829261099797
  endloop
endfacet
facet normal 3.804895251003631e-32 -3.3113950753314104e-31 1.0
  outer loop
    vertex 110.3993601208315 63.76667084522533 65.03829261099797
    vertex 110.1941422796973 29.298970008094727 65.03829261099797
    vertex 113.83728080811395 29.7123194191149 65.03829261099797
  endloop
endfacet
facet normal 3.804895251003631e-32 -3.3113950753314104e-31 1.0
  outer loop
    vertex 110.3993601208315 63.76667084522533 65.03829261099797
    vertex 113.83728080811395 29.7123194191149 65.03829261099797
    vertex 113.93635775275762 63.35062873578215 65.03829261099797
  endloop
endfacet
facet normal 3.804895251003631e-32 -3.3113950753314104e-31 1.0
  outer loop
    vertex 113.93635775275762 63.35062873578215 65.03829261099797
    vertex 113.83728080811395 29.7123194191149 65.03829261099797
    vertex 117.40375281987087 30.562962388978786 65.03829261099797
  endloop
endfacet
facet normal 3.804895251003631e-32 -3.3113950753314104e-31 1.0
  outer loop
    vertex 113.93635775275762 63.35062873578215 65.03829261099797
    vertex 117.40375281987087 30.562962388978786 65.03829261099797
    vertex 117.40375281987087 62.53784664097479 65.03829261099797
  endloop
endfacet
facet normal 3.804895251003631e-32 -3.3113950753314104e-31 1.0
  outer loop
    vertex 117.40375281987087 62.53784664097479 65.03829261099797
    vertex 117.40375281987087 30.562962388978786 65.03829261099797
    vertex 224.82142970335286 30.562962388978786 65.03829261099797
  endloop
endfacet
facet normal 3.804895251003631e-32 -3.3113950753314104e-31 1.0
  outer loop
    vertex 117.40375281987087 62.53784664097479 65.03829261099797
    vertex 224.82142970335286 30.562962388978786 65.03829261099797
    vertex 224.82142970335286 62.53784664097479 65.03829261099797
  endloop
endfacet
facet normal 1.0 0.0 0.0
  outer loop
    vertex 117.40375281987087 62.53784664097479 44.560927712685974
    vertex 117.40375281987087 30.562962388978786 65.03829261099797
    vertex 117.40375281987087 30.562962388978786 44.560927712685974
  endloop
endfacet
facet normal 1.0 0.0 0.0
  outer loop
    vertex 117.40375281987087 30.562962388978786 65.03829261099797
    vertex 117.40375281987087 62.53784664097479 44.560927712685974
    vertex 117.40375281987087 62.53784664097479 65.03829261099797
  endloop
endfacet
facet normal -1.0 1.5971033953370055e-16 -1.4319942857532159e-15
  outer loop
    vertex 7.763867197855954 135.03995949898083 22.90435196171732
    vertex 7.763867197855985 121.21920012425085 1.3125776236507823e-14
    vertex 7.763867197855954 121.21920012425085 22.90435196171732
  endloop
endfacet
facet normal -1.0 1.5971033953370055e-16 -1.4319942857532159e-15
  outer loop
    vertex 7.763867197855985 121.21920012425085 1.3125776236507823e-14
    vertex 7.763867197855954 135.03995949898083 22.90435196171732
    vertex 7.763867197855985 135.03995949898083 1.3125776236507823e-14
  endloop
endfacet
facet normal 1.5971033953370055e-16 1.0 2.133128284483085e-31
  outer loop
    vertex -4.511946372076636e-14 121.21920012425085 22.90435196171732
    vertex 7.763867197855985 121.21920012425085 1.3125776236507823e-14
    vertex -1.45278807650584e-14 121.21920012425085 2.007962773831195e-15
  endloop
endfacet
facet normal 1.5971033953370055e-16 1.0 2.133128284483085e-31
  outer loop
    vertex 7.763867197855985 121.21920012425085 1.3125776236507823e-14
    vertex -4.511946372076636e-14 121.21920012425085 22.90435196171732
    vertex 7.763867197855954 121.21920012425085 22.90435196171732
  endloop
endfacet
facet normal 1.4319942857532159e-15 0.0 -1.0
  outer loop
    vertex 7.763867197855954 135.03995949898083 22.90435196171732
    vertex -4.511946372076636e-14 121.21920012425085 22.90435196171732
    vertex -4.511946372076636e-14 135.03995949898083 22.90435196171732
  endloop
endfacet
facet normal 1.4319942857532159e-15 0.0 -1.0
  outer loop
    vertex -4.511946372076636e-14 121.21920012425085 22.90435196171732
    vertex 7.763867197855954 135.03995949898083 22.90435196171732
    vertex 7.763867197855954 121.21920012425085 22.90435196171732
  endloop
endfacet
facet normal 0.0 0.0 1.0
  outer loop
    vertex 80.856900007814 47.42347063749587 65.03829261099797
    vertex 17.213474049534017 216.99128052000006 65.03829261099797
    vertex 17.213474049534014 47.42347063749587 65.03829261099797
  endloop
endfacet
facet normal 0.0 0.0 1.0
  outer loop
    vertex 17.213474049534017 216.99128052000006 65.03829261099797
    vertex 80.856900007814 47.42347063749587 65.03829261099797
    vertex 82.73736275076152 50.44792152277523 65.03829261099797
  endloop
endfacet
facet normal 0.0 0.0 1.0
  outer loop
    vertex 17.213474049534017 216.99128052000006 65.03829261099797
    vertex 82.73736275076152 50.44792152277523 65.03829261099797
    vertex 84.94732176808816 53.24068438897378 65.03829261099797
  endloop
endfacet
facet normal 0.0 0.0 1.0
  outer loop
    vertex 17.213474049534017 216.99128052000006 65.03829261099797
    vertex 84.94732176808816 53.24068438897378 65.03829261099797
    vertex 87.45850717230489 55.76603409757448 65.03829261099797
  endloop
endfacet
facet normal 0.0 0.0 1.0
  outer loop
    vertex 17.213474049534017 216.99128052000006 65.03829261099797
    vertex 87.45850717230489 55.76603409757448 65.03829261099797
    vertex 90.23879577547717 57.99166627027312 65.03829261099797
  endloop
endfacet
facet normal 0.0 0.0 1.0
  outer loop
    vertex 17.213474049534017 216.99128052000006 65.03829261099797
    vertex 90.23879577547717 57.99166627027312 65.03829261099797
    vertex 321.2630123401581 216.99128052000006 65.03829261099797
  endloop
endfacet
facet normal 0.0 0.0 1.0
  outer loop
    vertex 321.2630123401581 216.99128052000006 65.03829261099797
    vertex 90.23879577547717 57.99166627027312 65.03829261099797
    vertex 93.2526220103784 59.88911052792653 65.03829261099797
  endloop
endfacet
facet normal 0.0 0.0 1.0
  outer loop
    vertex 321.2630123401581 216.99128052000006 65.03829261099797
    vertex 93.2526220103784 59.88911052792653 65.03829261099797
    vertex 96.46143288670241 61.43409468482448 65.03829261099797
  endloop
endfacet
facet normal 0.0 0.0 1.0
  outer loop
    vertex 321.2630123401581 216.99128052000006 65.03829261099797
    vertex 96.46143288670241 61.43409468482448 65.03829261099797
    vertex 99.82418116251571 62.60685523949684 65.03829261099797
  endloop
endfacet
facet normal 0.0 0.0 1.0
  outer loop
    vertex 321.2630123401581 216.99128052000006 65.03829261099797
    vertex 99.82418116251571 62.60685523949684 65.03829261099797
    vertex 103.2978504222804 63.39239019024488 65.03829261099797
  endloop
endfacet
facet normal 0.0 0.0 1.0
  outer loop
    vertex 321.2630123401581 216.99128052000006 65.03829261099797
    vertex 103.2978504222804 63.39239019024488 65.03829261099797
    vertex 106.83800534462729 63.780650941369636 65.03829261099797
  endloop
endfacet
facet normal 0.0 0.0 1.0
  outer loop
    vertex 321.2630123401581 216.99128052000006 65.03829261099797
    vertex 106.83800534462729 63.780650941369636 65.03829261099797
    vertex 110.3993601208315 63.76667084522533 65.03829261099797
  endloop
endfacet
facet normal 0.0 0.0 1.0
  outer loop
    vertex 321.2630123401581 216.99128052000006 65.03829261099797
    vertex 110.3993601208315 63.76667084522533 65.03829261099797
    vertex 113.93635775275762 63.35062873578215 65.03829261099797
  endloop
endfacet
facet normal 0.0 0.0 1.0
  outer loop
    vertex 321.2630123401581 216.99128052000006 65.03829261099797
    vertex 113.93635775275762 63.35062873578215 65.03829261099797
    vertex 117.40375281987087 62.53784664097479 65.03829261099797
  endloop
endfacet
facet normal 0.0 0.0 1.0
  outer loop
    vertex 321.2630123401581 216.99128052000006 65.03829261099797
    vertex 117.40375281987087 62.53784664097479 65.03829261099797
    vertex 224.82142970335286 62.53784664097479 65.03829261099797
  endloop
endfacet
facet normal 0.0 0.0 1.0
  outer loop
    vertex 321.2630123401581 216.99128052000006 65.03829261099797
    vertex 224.82142970335286 62.53784664097479 65.03829261099797
    vertex 228.45365742140086 63.374753362747754 65.03829261099797
  endloop
endfacet
facet normal 0.0 0.0 1.0
  outer loop
    vertex 321.2630123401581 216.99128052000006 65.03829261099797
    vertex 228.45365742140086 63.374753362747754 65.03829261099797
    vertex 232.15524238576435 63.81265724295799 65.03829261099797
  endloop
endfacet
facet normal 0.0 0.0 1.0
  outer loop
    vertex 321.2630123401581 216.99128052000006 65.03829261099797
    vertex 232.15524238576435 63.81265724295799 65.03829261099797
    vertex 235.88248711064998 63.846388793732416 65.03829261099797
  endloop
endfacet
facet normal 0.0 0.0 1.0
  outer loop
    vertex 321.2630123401581 216.99128052000006 65.03829261099797
    vertex 235.88248711064998 63.846388793732416 65.03829261099797
    vertex 239.59139119488296 63.47554981160551 65.03829261099797
  endloop
endfacet
facet normal 0.0 0.0 1.0
  outer loop
    vertex 321.2630123401581 216.99128052000006 65.03829261099797
    vertex 239.59139119488296 63.47554981160551 65.03829261099797
    vertex 243.2381707499156 62.704518078340826 65.03829261099797
  endloop
endfacet
facet normal 0.0 0.0 1.0
  outer loop
    vertex 321.2630123401581 216.99128052000006 65.03829261099797
    vertex 243.2381707499156 62.704518078340826 65.03829261099797
    vertex 246.77977527188753 61.54239568089159 65.03829261099797
  endloop
endfacet
facet normal 0.0 0.0 1.0
  outer loop
    vertex 321.2630123401581 216.99128052000006 65.03829261099797
    vertex 246.77977527188753 61.54239568089159 65.03829261099797
    vertex 250.17439585602563 60.00290156058749 65.03829261099797
  endloop
endfacet
facet normal 0.0 0.0 1.0
  outer loop
    vertex 321.2630123401581 216.99128052000006 65.03829261099797
    vertex 250.17439585602563 60.00290156058749 65.03829261099797
    vertex 253.38195875387422 58.10420956001174 65.03829261099797
  endloop
endfacet
facet normal 0.0 0.0 1.0
  outer loop
    vertex 321.2630123401581 216.99128052000006 65.03829261099797
    vertex 253.38195875387422 58.10420956001174 65.03829261099797
    vertex 256.36459844687585 55.868733879438054 65.03829261099797
  endloop
endfacet
facet normal 0.0 0.0 1.0
  outer loop
    vertex 321.2630123401581 216.99128052000006 65.03829261099797
    vertex 256.36459844687585 55.868733879438054 65.03829261099797
    vertex 259.0871046516339 53.32286447552922 65.03829261099797
  endloop
endfacet
facet normal 0.0 0.0 1.0
  outer loop
    vertex 321.2630123401581 216.99128052000006 65.03829261099797
    vertex 259.0871046516339 53.32286447552922 65.03829261099797
    vertex 261.5173379799268 50.49665552593623 65.03829261099797
  endloop
endfacet
facet normal 0.0 0.0 1.0
  outer loop
    vertex 321.2630123401581 216.99128052000006 65.03829261099797
    vertex 261.5173379799268 50.49665552593623 65.03829261099797
    vertex 263.6266093465762 47.42347063749587 65.03829261099797
  endloop
endfacet
facet normal 0.0 0.0 1.0
  outer loop
    vertex 321.2630123401581 216.99128052000006 65.03829261099797
    vertex 263.6266093465762 47.42347063749587 65.03829261099797
    vertex 321.2630123401581 47.42347063749587 65.03829261099797
  endloop
endfacet
facet normal 7.91189051827471e-16 1.0 0.0
  outer loop
    vertex 168.77099596000008 349.9070573837301 65.03829261099797
    vertex 207.05829487850428 345.6324945970498 -5.639932965095795e-15
    vertex 168.77099596000008 349.9070573837301 -5.639932965095795e-15
  endloop
endfacet
facet normal 0.22053990039830165 0.9753779535812296 0.0
  outer loop
    vertex 207.05829487850428 345.6324945970498 -5.639932965095795e-15
    vertex 168.77099596000008 349.9070573837301 65.03829261099797
    vertex 207.05829487850428 345.6324945970498 65.03829261099797
  endloop
endfacet
facet normal 0.22053990039830165 0.9753779535812296 0.0
  outer loop
    vertex 207.05829487850428 345.6324945970498 65.03829261099797
    vertex 168.77099596000008 349.9070573837301 65.03829261099797
    vertex 177.37773298476708 348.94616333165493 65.03829261099797
  endloop
endfacet
facet normal -0.7071067811865478 0.7071067811865474 -3.1194885164972203e-32
  outer loop
    vertex 144.13841217133074 304.20945618428084 71.49973209253004
    vertex 136.6680452899712 294.4738845200605 65.03829261099797
    vertex 136.6680452899712 294.4738845200605 71.49973209253004
  endloop
endfacet
facet normal -0.866025403784438 0.5000000000000011 -3.820577561944924e-32
  outer loop
    vertex 136.6680452899712 294.4738845200605 65.03829261099797
    vertex 144.13841217133074 304.20945618428084 71.49973209253004
    vertex 144.13841217133074 304.20945618428084 65.03829261099797
  endloop
endfacet
facet normal -1.0 0.0 0.0
  outer loop
    vertex 1.606370219064956e-14 92.74183786107987 44.957372104558
    vertex 1.606370219064956e-14 0.0 2.007962773831195e-15
    vertex 1.606370219064956e-14 0.0 44.957372104558
  endloop
endfacet
facet normal -1.0 0.0 0.0
  outer loop
    vertex 1.606370219064956e-14 0.0 2.007962773831195e-15
    vertex 1.606370219064956e-14 92.74183786107987 44.957372104558
    vertex 1.606370219064956e-14 92.74183786107987 2.007962773831195e-15
  endloop
endfacet
facet normal -0.9401341806298926 0.3408045222871325 -4.024836221645492e-18
  outer loop
    vertex 1.606370219064956e-14 216.99128052000006 65.03829261099797
    vertex 1.606370219064956e-14 216.99128052000006 2.007962773831195e-15
    vertex 1.606370219064956e-14 216.99128052000006 44.957372104558
  endloop
endfacet
facet normal -0.9401341806298926 0.3408045222871325 -4.024836221645492e-18
  outer loop
    vertex 1.606370219064956e-14 216.99128052000006 2.007962773831195e-15
    vertex 1.606370219064956e-14 216.99128052000006 65.03829261099797
    vertex 13.129554024283504 253.21011480018623 65.03829261099797
  endloop
endfacet
facet normal -0.9401341806298926 0.3408045222871325 -4.024836221645492e-18
  outer loop
    vertex 1.606370219064956e-14 216.99128052000006 2.007962773831195e-15
    vertex 13.129554024283504 253.21011480018623 65.03829261099797
    vertex 13.129554024283504 253.21011480018623 -5.639932965095795e-15
  endloop
endfacet
facet normal 0.0 1.0 0.0
  outer loop
    vertex 117.40375281987087 30.562962388978786 65.03829261099797
    vertex 224.82142970335286 30.562962388978786 44.560927712685974
    vertex 117.40375281987087 30.562962388978786 44.560927712685974
  endloop
endfacet
facet normal 0.0 1.0 0.0
  outer loop
    vertex 224.82142970335286 30.562962388978786 44.560927712685974
    vertex 117.40375281987087 30.562962388978786 65.03829261099797
    vertex 224.82142970335286 30.562962388978786 65.03829261099797
  endloop
endfacet
facet normal 9.000220994603375e-16 -1.0 3.822359256474639e-47
  outer loop
    vertex 177.37773298476708 223.96263707241255 71.49973209253004
    vertex 165.21129716250857 225.5643787351496 65.03829261099797
    vertex 177.37773298476708 223.96263707241255 65.03829261099797
  endloop
endfacet
facet normal -0.2588190451025202 -0.9659258262890684 -1.1418120438518122e-32
  outer loop
    vertex 165.21129716250857 225.5643787351496 65.03829261099797
    vertex 177.37773298476708 223.96263707241255 71.49973209253004
    vertex 165.21129716250857 225.5643787351496 71.49973209253004
  endloop
endfacet
facet normal 0.0 0.0 1.0
  outer loop
    vertex 224.82142970335286 30.562962388978786 44.560927712685974
    vertex 117.40375281987087 62.53784664097479 44.560927712685974
    vertex 117.40375281987087 30.562962388978786 44.560927712685974
  endloop
endfacet
facet normal 0.0 0.0 1.0
  outer loop
    vertex 117.40375281987087 62.53784664097479 44.560927712685974
    vertex 224.82142970335286 30.562962388978786 44.560927712685974
    vertex 224.82142970335286 62.53784664097479 44.560927712685974
  endloop
endfacet
facet normal -0.6187133568740237 0.785616816282389 0.0
  outer loop
    vertex 61.357946454109936 312.6886083716802 65.03829261099797
    vertex 94.08182142543313 333.0193032037162 -5.639932965095795e-15
    vertex 61.357946454109936 312.6886083716802 -5.639932965095795e-15
  endloop
endfacet
facet normal -0.4302195134670088 0.9027243046646137 0.0
  outer loop
    vertex 94.08182142543313 333.0193032037162 -5.639932965095795e-15
    vertex 61.357946454109936 312.6886083716802 65.03829261099797
    vertex 94.08182142543313 333.0193032037162 65.03829261099797
  endloop
endfacet
facet normal -0.7767392222953079 0.6298223404644203 0.0
  outer loop
    vertex 33.92352966461821 285.6415767247023 65.03829261099797
    vertex 13.129554024283504 253.21011480018623 -5.639932965095795e-15
    vertex 13.129554024283504 253.21011480018623 65.03829261099797
  endloop
endfacet
facet normal -0.8965152693433224 0.44301283484146414 -2.024921136810365e-18
  outer loop
    vertex 13.129554024283504 253.21011480018623 -5.639932965095795e-15
    vertex 33.92352966461821 285.6415767247023 65.03829261099797
    vertex 33.92352966461821 285.6415767247023 -5.639932965095795e-15
  endloop
endfacet
facet normal 0.8660254037844387 -0.49999999999999994 3.820577561944926e-32
  outer loop
    vertex 218.08742067956297 247.46638622162857 65.03829261099797
    vertex 210.61705379820344 237.73081455740814 71.49973209253004
    vertex 210.61705379820344 237.73081455740814 65.03829261099797
  endloop
endfacet
facet normal 0.7071067811865479 -0.7071067811865471 3.119488516497221e-32
  outer loop
    vertex 210.61705379820344 237.73081455740814 71.49973209253004
    vertex 218.08742067956297 247.46638622162857 65.03829261099797
    vertex 218.08742067956297 247.46638622162857 71.49973209253004
  endloop
endfacet
facet normal 1.0 0.0 0.0
  outer loop
    vertex 337.54199192000016 216.99128052000006 2.007962773831195e-15
    vertex 337.54199192000016 0.0 44.957372104558
    vertex 337.54199192000016 0.0 2.007962773831195e-15
  endloop
endfacet
facet normal 1.0 0.0 0.0
  outer loop
    vertex 337.54199192000016 0.0 44.957372104558
    vertex 337.54199192000016 216.99128052000006 2.007962773831195e-15
    vertex 337.54199192000016 216.99128052000006 44.957372104558
  endloop
endfacet
facet normal 0.5000000000000003 -0.8660254037844385 2.2058114838487485e-32
  outer loop
    vertex 200.8814821339831 230.26044767604864 71.49973209253004
    vertex 189.54416880702567 225.5643787351496 65.03829261099797
    vertex 200.8814821339831 230.26044767604864 65.03829261099797
  endloop
endfacet
facet normal 0.25881904510252157 -0.9659258262890681 1.1418120438518179e-32
  outer loop
    vertex 189.54416880702567 225.5643787351496 65.03829261099797
    vertex 200.8814821339831 230.26044767604864 71.49973209253004
    vertex 189.54416880702567 225.5643787351496 71.49973209253004
  endloop
endfacet
facet normal -1.0 1.402676996210221e-16 5.510059718132146e-17
  outer loop
    vertex 1.606370219064956e-14 92.74183786107987 44.957372104558
    vertex -4.511946372076636e-14 121.21920012425085 22.90435196171732
    vertex 1.606370219064956e-14 92.74183786107987 2.007962773831195e-15
  endloop
endfacet
facet normal -1.0 1.402676996210221e-16 5.510059718132146e-17
  outer loop
    vertex -4.511946372076636e-14 121.21920012425085 22.90435196171732
    vertex 1.606370219064956e-14 92.74183786107987 44.957372104558
    vertex 1.606370219064956e-14 216.99128052000006 44.957372104558
  endloop
endfacet
facet normal -1.0 1.402676996210221e-16 5.510059718132146e-17
  outer loop
    vertex -4.511946372076636e-14 121.21920012425085 22.90435196171732
    vertex 1.606370219064956e-14 216.99128052000006 44.957372104558
    vertex -4.511946372076636e-14 135.03995949898083 22.90435196171732
  endloop
endfacet
facet normal -1.0 1.402676996210221e-16 5.510059718132146e-17
  outer loop
    vertex -4.511946372076636e-14 135.03995949898083 22.90435196171732
    vertex 1.606370219064956e-14 216.99128052000006 44.957372104558
    vertex -1.0113244420354996e-14 135.03995949898083 2.007962773831195e-15
  endloop
endfacet
facet normal -1.0 1.402676996210221e-16 5.510059718132146e-17
  outer loop
    vertex -1.0113244420354996e-14 135.03995949898083 2.007962773831195e-15
    vertex 1.606370219064956e-14 216.99128052000006 44.957372104558
    vertex 1.606370219064956e-14 216.99128052000006 2.007962773831195e-15
  endloop
endfacet
facet normal -1.0 1.402676996210221e-16 5.510059718132146e-17
  outer loop
    vertex -1.45278807650584e-14 121.21920012425085 2.007962773831195e-15
    vertex 1.606370219064956e-14 92.74183786107987 2.007962773831195e-15
    vertex -4.511946372076636e-14 121.21920012425085 22.90435196171732
  endloop
endfacet
facet normal 0.866025403784439 0.4999999999999993 3.820577561944927e-32
  outer loop
    vertex 218.08742067956294 294.4738845200605 65.03829261099797
    vertex 222.78348962046198 283.13657119310307 71.49973209253004
    vertex 222.78348962046198 283.13657119310307 65.03829261099797
  endloop
endfacet
facet normal 0.9659258262890681 0.25881904510252113 4.2613005603490334e-32
  outer loop
    vertex 222.78348962046198 283.13657119310307 71.49973209253004
    vertex 218.08742067956294 294.4738845200605 65.03829261099797
    vertex 218.08742067956294 294.4738845200605 71.49973209253004
  endloop
endfacet
facet normal 0.0 -1.0 0.0
  outer loop
    vertex 337.54199192000016 0.0 44.957372104558
    vertex 1.606370219064956e-14 0.0 2.007962773831195e-15
    vertex 337.54199192000016 0.0 2.007962773831195e-15
  endloop
endfacet
facet normal 0.0 -1.0 0.0
  outer loop
    vertex 1.606370219064956e-14 0.0 2.007962773831195e-15
    vertex 337.54199192000016 0.0 44.957372104558
    vertex 1.606370219064956e-14 0.0 44.957372104558
  endloop
endfacet
facet normal 0.0 0.0 1.0
  outer loop
    vertex 278.83990030637307 238.6693528582845 65.03829261099793
    vertex 241.7834889708351 268.5900801085445 65.03829261099793
    vertex 241.7834889708351 238.6693528582845 65.03829261099793
  endloop
endfacet
facet normal 0.0 0.0 1.0
  outer loop
    vertex 241.7834889708351 268.5900801085445 65.03829261099793
    vertex 278.83990030637307 238.6693528582845 65.03829261099793
    vertex 278.83990030637307 268.5900801085445 65.03829261099793
  endloop
endfacet
facet normal 1.6931108801729114e-16 1.0 0.0
  outer loop
    vertex 177.37773298476708 317.9776336692765 71.49973209253004
    vertex 189.5441688070256 316.3758920065394 65.03829261099797
    vertex 177.37773298476708 317.9776336692765 65.03829261099797
  endloop
endfacet
facet normal 0.2588190451025202 0.9659258262890686 8.514114527961671e-33
  outer loop
    vertex 189.5441688070256 316.3758920065394 65.03829261099797
    vertex 177.37773298476708 317.9776336692765 71.49973209253004
    vertex 189.5441688070256 316.3758920065394 71.49973209253004
  endloop
endfacet
facet normal -0.25881904510252 0.9659258262890686 -8.514114527961667e-33
  outer loop
    vertex 165.21129716250852 316.3758920065394 71.49973209253004
    vertex 177.37773298476708 317.9776336692765 65.03829261099797
    vertex 165.21129716250852 316.3758920065394 65.03829261099797
  endloop
endfacet
facet normal 1.6931108801729114e-16 1.0 0.0
  outer loop
    vertex 177.37773298476708 317.9776336692765 65.03829261099797
    vertex 165.21129716250852 316.3758920065394 71.49973209253004
    vertex 177.37773298476708 317.9776336692765 71.49973209253004
  endloop
endfacet
facet normal -0.7071067811865478 0.7071067811865474 -3.1194885164972203e-32
  outer loop
    vertex 144.13841217133074 304.20945618428084 71.49973209253004
    vertex 153.87398383555106 311.67982306564045 65.03829261099797
    vertex 144.13841217133074 304.20945618428084 65.03829261099797
  endloop
endfacet
facet normal -0.5000000000000017 0.8660254037844377 -2.2058114838487553e-32
  outer loop
    vertex 153.87398383555106 311.67982306564045 65.03829261099797
    vertex 144.13841217133074 304.20945618428084 71.49973209253004
    vertex 153.87398383555106 311.67982306564045 71.49973209253004
  endloop
endfacet
facet normal -0.7767392222953079 0.6298223404644203 0.0
  outer loop
    vertex 33.92352966461821 285.6415767247023 65.03829261099797
    vertex 61.357946454109936 312.6886083716802 -5.639932965095795e-15
    vertex 33.92352966461821 285.6415767247023 -5.639932965095795e-15
  endloop
endfacet
facet normal -0.6187133568740237 0.785616816282389 0.0
  outer loop
    vertex 61.357946454109936 312.6886083716802 -5.639932965095795e-15
    vertex 33.92352966461821 285.6415767247023 65.03829261099797
    vertex 61.357946454109936 312.6886083716802 65.03829261099797
  endloop
endfacet
facet normal -0.9659258262890686 0.25881904510252013 -4.261300560349036e-32
  outer loop
    vertex 131.97197634907218 283.13657119310307 71.49973209253004
    vertex 130.3702346863351 270.9701353708445 65.03829261099797
    vertex 130.3702346863351 270.9701353708445 71.49973209253004
  endloop
endfacet
facet normal -1.0 0.0 -4.4116229676974964e-32
  outer loop
    vertex 130.3702346863351 270.9701353708445 65.03829261099797
    vertex 131.97197634907218 283.13657119310307 71.49973209253004
    vertex 131.97197634907218 283.13657119310307 65.03829261099797
  endloop
endfacet
facet normal -1.0 0.0 0.0
  outer loop
    vertex 1.606370219064956e-14 216.99128052000006 65.03829261099797
    vertex 1.606370219064956e-14 92.74183786107987 44.957372104558
    vertex 1.606370219064956e-14 92.74183786107987 65.03829261099797
  endloop
endfacet
facet normal -1.0 0.0 0.0
  outer loop
    vertex 1.606370219064956e-14 92.74183786107987 44.957372104558
    vertex 1.606370219064956e-14 216.99128052000006 65.03829261099797
    vertex 1.606370219064956e-14 216.99128052000006 44.957372104558
  endloop
endfacet
facet normal -4.411622967697495e-32 -2.4104007094943647e-48 1.0
  outer loop
    vertex 131.97197634907218 258.803699548586 71.49973209253004
    vertex 131.97197634907218 283.13657119310307 71.49973209253004
    vertex 130.3702346863351 270.9701353708445 71.49973209253004
  endloop
endfacet
facet normal -4.411622967697495e-32 -2.4104007094943647e-48 1.0
  outer loop
    vertex 131.97197634907218 283.13657119310307 71.49973209253004
    vertex 131.97197634907218 258.803699548586 71.49973209253004
    vertex 136.66804528997122 247.4663862216285 71.49973209253004
  endloop
endfacet
facet normal -4.411622967697495e-32 -2.4104007094943647e-48 1.0
  outer loop
    vertex 131.97197634907218 283.13657119310307 71.49973209253004
    vertex 136.66804528997122 247.4663862216285 71.49973209253004
    vertex 136.6680452899712 294.4738845200605 71.49973209253004
  endloop
endfacet
facet normal -4.411622967697495e-32 -2.4104007094943647e-48 1.0
  outer loop
    vertex 136.6680452899712 294.4738845200605 71.49973209253004
    vertex 136.66804528997122 247.4663862216285 71.49973209253004
    vertex 144.13841217133074 304.20945618428084 71.49973209253004
  endloop
endfacet
facet normal -4.411622967697495e-32 -2.4104007094943647e-48 1.0
  outer loop
    vertex 144.13841217133074 304.20945618428084 71.49973209253004
    vertex 136.66804528997122 247.4663862216285 71.49973209253004
    vertex 144.13841217133074 237.73081455740814 71.49973209253004
  endloop
endfacet
facet normal -4.411622967697495e-32 -2.4104007094943647e-48 1.0
  outer loop
    vertex 144.13841217133074 304.20945618428084 71.49973209253004
    vertex 144.13841217133074 237.73081455740814 71.49973209253004
    vertex 153.8739838355511 230.2604476760486 71.49973209253004
  endloop
endfacet
facet normal -4.411622967697495e-32 -2.4104007094943647e-48 1.0
  outer loop
    vertex 144.13841217133074 304.20945618428084 71.49973209253004
    vertex 153.8739838355511 230.2604476760486 71.49973209253004
    vertex 153.87398383555106 311.67982306564045 71.49973209253004
  endloop
endfacet
facet normal -4.411622967697495e-32 -2.4104007094943647e-48 1.0
  outer loop
    vertex 153.87398383555106 311.67982306564045 71.49973209253004
    vertex 153.8739838355511 230.2604476760486 71.49973209253004
    vertex 165.21129716250852 316.3758920065394 71.49973209253004
  endloop
endfacet
facet normal -4.411622967697495e-32 -2.4104007094943647e-48 1.0
  outer loop
    vertex 165.21129716250852 316.3758920065394 71.49973209253004
    vertex 153.8739838355511 230.2604476760486 71.49973209253004
    vertex 165.21129716250857 225.5643787351496 71.49973209253004
  endloop
endfacet
facet normal -4.411622967697495e-32 -2.4104007094943647e-48 1.0
  outer loop
    vertex 165.21129716250852 316.3758920065394 71.49973209253004
    vertex 165.21129716250857 225.5643787351496 71.49973209253004
    vertex 177.37773298476708 317.9776336692765 71.49973209253004
  endloop
endfacet
facet normal -4.411622967697495e-32 -2.4104007094943647e-48 1.0
  outer loop
    vertex 177.37773298476708 317.9776336692765 71.49973209253004
    vertex 165.21129716250857 225.5643787351496 71.49973209253004
    vertex 177.37773298476708 223.96263707241255 71.49973209253004
  endloop
endfacet
facet normal -4.411622967697495e-32 -2.4104007094943647e-48 1.0
  outer loop
    vertex 177.37773298476708 317.9776336692765 71.49973209253004
    vertex 177.37773298476708 223.96263707241255 71.49973209253004
    vertex 189.54416880702567 225.5643787351496 71.49973209253004
  endloop
endfacet
facet normal -4.411622967697495e-32 -2.4104007094943647e-48 1.0
  outer loop
    vertex 177.37773298476708 317.9776336692765 71.49973209253004
    vertex 189.54416880702567 225.5643787351496 71.49973209253004
    vertex 189.5441688070256 316.3758920065394 71.49973209253004
  endloop
endfacet
facet normal -4.411622967697495e-32 -2.4104007094943647e-48 1.0
  outer loop
    vertex 189.5441688070256 316.3758920065394 71.49973209253004
    vertex 189.54416880702567 225.5643787351496 71.49973209253004
    vertex 200.88148213398307 311.67982306564045 71.49973209253004
  endloop
endfacet
facet normal -4.411622967697495e-32 -2.4104007094943647e-48 1.0
  outer loop
    vertex 200.88148213398307 311.67982306564045 71.49973209253004
    vertex 189.54416880702567 225.5643787351496 71.49973209253004
    vertex 200.8814821339831 230.26044767604864 71.49973209253004
  endloop
endfacet
facet normal -4.411622967697495e-32 -2.4104007094943647e-48 1.0
  outer loop
    vertex 200.88148213398307 311.67982306564045 71.49973209253004
    vertex 200.8814821339831 230.26044767604864 71.49973209253004
    vertex 210.61705379820344 304.2094561842809 71.49973209253004
  endloop
endfacet
facet normal -4.411622967697495e-32 -2.4104007094943647e-48 1.0
  outer loop
    vertex 210.61705379820344 304.2094561842809 71.49973209253004
    vertex 200.8814821339831 230.26044767604864 71.49973209253004
    vertex 210.61705379820344 237.73081455740814 71.49973209253004
  endloop
endfacet
facet normal -4.411622967697495e-32 -2.4104007094943647e-48 1.0
  outer loop
    vertex 210.61705379820344 304.2094561842809 71.49973209253004
    vertex 210.61705379820344 237.73081455740814 71.49973209253004
    vertex 218.08742067956297 247.46638622162857 71.49973209253004
  endloop
endfacet
facet normal -4.411622967697495e-32 -2.4104007094943647e-48 1.0
  outer loop
    vertex 210.61705379820344 304.2094561842809 71.49973209253004
    vertex 218.08742067956297 247.46638622162857 71.49973209253004
    vertex 218.08742067956294 294.4738845200605 71.49973209253004
  endloop
endfacet
facet normal -4.411622967697495e-32 -2.4104007094943647e-48 1.0
  outer loop
    vertex 218.08742067956294 294.4738845200605 71.49973209253004
    vertex 218.08742067956297 247.46638622162857 71.49973209253004
    vertex 222.78348962046198 283.13657119310307 71.49973209253004
  endloop
endfacet
facet normal -4.411622967697495e-32 -2.4104007094943647e-48 1.0
  outer loop
    vertex 222.78348962046198 283.13657119310307 71.49973209253004
    vertex 218.08742067956297 247.46638622162857 71.49973209253004
    vertex 222.78348962046198 258.803699548586 71.49973209253004
  endloop
endfacet
facet normal -4.411622967697495e-32 -2.4104007094943647e-48 1.0
  outer loop
    vertex 222.78348962046198 283.13657119310307 71.49973209253004
    vertex 222.78348962046198 258.803699548586 71.49973209253004
    vertex 224.3852312831991 270.9701353708445 71.49973209253004
  endloop
endfacet
facet normal 0.7071067811865479 -0.7071067811865471 3.119488516497221e-32
  outer loop
    vertex 210.61705379820344 237.73081455740814 71.49973209253004
    vertex 200.8814821339831 230.26044767604864 65.03829261099797
    vertex 210.61705379820344 237.73081455740814 65.03829261099797
  endloop
endfacet
facet normal 0.5000000000000003 -0.8660254037844385 2.2058114838487485e-32
  outer loop
    vertex 200.8814821339831 230.26044767604864 65.03829261099797
    vertex 210.61705379820344 237.73081455740814 71.49973209253004
    vertex 200.8814821339831 230.26044767604864 71.49973209253004
  endloop
endfacet
facet normal 0.25881904510252157 -0.9659258262890681 1.1418120438518179e-32
  outer loop
    vertex 189.54416880702567 225.5643787351496 71.49973209253004
    vertex 177.37773298476708 223.96263707241255 65.03829261099797
    vertex 189.54416880702567 225.5643787351496 65.03829261099797
  endloop
endfacet
facet normal 9.000220994603375e-16 -1.0 3.822359256474639e-47
  outer loop
    vertex 177.37773298476708 223.96263707241255 65.03829261099797
    vertex 189.54416880702567 225.5643787351496 71.49973209253004
    vertex 177.37773298476708 223.96263707241255 71.49973209253004
  endloop
endfacet
facet normal 0.22053990039830165 0.9753779535812296 0.0
  outer loop
    vertex 207.05829487850428 345.6324945970498 65.03829261099797
    vertex 243.460170494567 333.0193032037162 -5.639932965095795e-15
    vertex 207.05829487850428 345.6324945970498 -5.639932965095795e-15
  endloop
endfacet
facet normal 0.43021951346700804 0.902724304664614 0.0
  outer loop
    vertex 243.460170494567 333.0193032037162 -5.639932965095795e-15
    vertex 207.05829487850428 345.6324945970498 65.03829261099797
    vertex 243.460170494567 333.0193032037162 65.03829261099797
  endloop
endfacet
facet normal 0.9659258262890681 0.25881904510252113 4.2613005603490334e-32
  outer loop
    vertex 222.78348962046198 283.13657119310307 65.03829261099797
    vertex 224.3852312831991 270.9701353708445 71.49973209253004
    vertex 224.3852312831991 270.9701353708445 65.03829261099797
  endloop
endfacet
facet normal 1.0 1.0693331874776285e-15 4.411622967697495e-32
  outer loop
    vertex 224.3852312831991 270.9701353708445 71.49973209253004
    vertex 222.78348962046198 283.13657119310307 65.03829261099797
    vertex 222.78348962046198 283.13657119310307 71.49973209253004
  endloop
endfacet
facet normal 0.2588190451025202 0.9659258262890686 8.514114527961671e-33
  outer loop
    vertex 189.5441688070256 316.3758920065394 71.49973209253004
    vertex 200.88148213398307 311.67982306564045 65.03829261099797
    vertex 189.5441688070256 316.3758920065394 65.03829261099797
  endloop
endfacet
facet normal 0.4999999999999993 0.866025403784439 2.205811483848745e-32
  outer loop
    vertex 200.88148213398307 311.67982306564045 65.03829261099797
    vertex 189.5441688070256 316.3758920065394 71.49973209253004
    vertex 200.88148213398307 311.67982306564045 71.49973209253004
  endloop
endfacet
facet normal 0.9659258262890683 -0.25881904510252063 4.261300560349035e-32
  outer loop
    vertex 222.78348962046198 258.803699548586 65.03829261099797
    vertex 218.08742067956297 247.46638622162857 71.49973209253004
    vertex 218.08742067956297 247.46638622162857 65.03829261099797
  endloop
endfacet
facet normal 0.8660254037844387 -0.49999999999999994 3.820577561944926e-32
  outer loop
    vertex 218.08742067956297 247.46638622162857 71.49973209253004
    vertex 222.78348962046198 258.803699548586 65.03829261099797
    vertex 222.78348962046198 258.803699548586 71.49973209253004
  endloop
endfacet
facet normal -0.5000000000000003 -0.8660254037844386 -2.2058114838487496e-32
  outer loop
    vertex 153.8739838355511 230.2604476760486 71.49973209253004
    vertex 144.13841217133074 237.73081455740814 65.03829261099797
    vertex 153.8739838355511 230.2604476760486 65.03829261099797
  endloop
endfacet
facet normal -0.7071067811865478 -0.7071067811865474 -3.1194885164972203e-32
  outer loop
    vertex 144.13841217133074 237.73081455740814 65.03829261099797
    vertex 153.8739838355511 230.2604476760486 71.49973209253004
    vertex 144.13841217133074 237.73081455740814 71.49973209253004
  endloop
endfacet
facet normal -0.9659258262890681 -0.25881904510252113 -4.2613005603490334e-32
  outer loop
    vertex 131.97197634907218 258.803699548586 71.49973209253004
    vertex 136.66804528997122 247.4663862216285 65.03829261099797
    vertex 136.66804528997122 247.4663862216285 71.49973209253004
  endloop
endfacet
facet normal -0.8660254037844385 -0.5000000000000006 -3.820577561944925e-32
  outer loop
    vertex 136.66804528997122 247.4663862216285 65.03829261099797
    vertex 131.97197634907218 258.803699548586 71.49973209253004
    vertex 131.97197634907218 258.803699548586 65.03829261099797
  endloop
endfacet
facet normal 0.7071067811865476 0.7071067811865476 3.11948851649722e-32
  outer loop
    vertex 210.61705379820344 304.2094561842809 65.03829261099797
    vertex 218.08742067956294 294.4738845200605 71.49973209253004
    vertex 218.08742067956294 294.4738845200605 65.03829261099797
  endloop
endfacet
facet normal 0.866025403784439 0.4999999999999993 3.820577561944927e-32
  outer loop
    vertex 218.08742067956294 294.4738845200605 71.49973209253004
    vertex 210.61705379820344 304.2094561842809 65.03829261099797
    vertex 210.61705379820344 304.2094561842809 71.49973209253004
  endloop
endfacet
facet normal -0.4302195134670088 0.9027243046646137 0.0
  outer loop
    vertex 94.08182142543313 333.0193032037162 65.03829261099797
    vertex 130.48369704149584 345.6324945970498 -5.639932965095795e-15
    vertex 94.08182142543313 333.0193032037162 -5.639932965095795e-15
  endloop
endfacet
facet normal -0.22053990039830154 0.9753779535812296 0.0
  outer loop
    vertex 130.48369704149584 345.6324945970498 -5.639932965095795e-15
    vertex 94.08182142543313 333.0193032037162 65.03829261099797
    vertex 130.48369704149584 345.6324945970498 65.03829261099797
  endloop
endfacet
facet normal -0.22053990039830154 0.9753779535812296 0.0
  outer loop
    vertex 130.48369704149584 345.6324945970498 65.03829261099797
    vertex 168.77099596000008 349.9070573837301 -5.639932965095795e-15
    vertex 130.48369704149584 345.6324945970498 -5.639932965095795e-15
  endloop
endfacet
facet normal 7.91189051827471e-16 1.0 0.0
  outer loop
    vertex 168.77099596000008 349.9070573837301 -5.639932965095795e-15
    vertex 130.48369704149584 345.6324945970498 65.03829261099797
    vertex 168.77099596000008 349.9070573837301 65.03829261099797
  endloop
endfacet
endsolid Botsy
